<svg width="1016" height="320" viewBox="0 0 1016 320" fill="none" xmlns="http://www.w3.org/2000/svg">
<g clip-path="url(#clip0_2228_365)">
<path d="M599.919 64.5974C601.727 65.1654 603.313 66.0039 604.944 66.9539C605.279 67.1365 605.613 67.319 605.958 67.5072C609.315 69.4121 611.844 71.8844 613.344 75.4701C614.588 80.6042 612.543 85.3715 610.353 89.9209C609.163 92.4011 608.153 94.9443 607.149 97.5038C606.965 97.9733 606.78 98.4428 606.59 98.9266C605.401 101.974 604.271 105.038 603.181 108.121C601.491 112.848 599.63 117.511 597.792 122.182C597.166 123.772 596.554 125.367 595.947 126.964C595.672 127.67 595.377 128.368 595.078 129.064C594.314 130.954 594.314 130.954 594.557 132.921C595.044 133.857 595.591 134.673 596.22 135.52C596.418 135.811 596.617 136.103 596.821 136.402C597.443 137.308 598.077 138.203 598.765 139.061C598.736 140.452 598.554 141.48 597.966 142.745C595.893 144.586 593.039 144.895 590.334 145.06C587.678 145.309 585.548 146.456 583.798 148.468C583.012 149.563 582.273 150.678 581.544 151.811C579.08 155.478 576.505 158.502 573.349 161.584C572.458 162.491 571.588 163.415 570.728 164.352C570.344 164.76 569.96 165.168 569.564 165.589C568.676 166.696 568.676 166.696 568.927 167.937C570.939 172.243 574.806 174.858 579.183 176.46C582.32 177.36 585.414 177.499 588.656 177.353C592.311 177.187 595.961 177.208 599.619 177.226C600.289 177.228 600.959 177.231 601.629 177.233C602.966 177.238 604.304 177.243 605.641 177.248C606.319 177.251 606.997 177.253 607.675 177.256C608.029 177.258 608.384 177.259 608.75 177.26C609.815 177.265 610.88 177.268 611.945 177.271C612.266 177.272 612.586 177.274 612.917 177.275C614.375 177.279 615.826 177.264 617.284 177.219C618.647 177.182 619.917 177.275 621.269 177.444C621.685 177.495 622.1 177.545 622.529 177.597C622.993 177.657 622.993 177.657 623.466 177.718C623.641 177.449 623.817 177.18 623.998 176.903C624.25 176.941 624.502 176.98 624.762 177.019C626.819 177.296 628.762 177.407 630.835 177.264C633.495 177.107 636.132 177.111 638.796 177.144C646.027 177.195 653.246 176.928 660.471 176.661C662.59 176.582 664.709 176.512 666.829 176.452C678.79 176.09 690.662 174.721 702.529 173.276C714.677 171.8 726.833 170.504 739.046 169.681C743.241 169.393 747.426 169.027 751.612 168.631C754.091 168.397 756.569 168.171 759.052 167.973C765.124 167.486 771.162 166.861 777.204 166.096C778.647 165.913 780.089 165.734 781.532 165.554C785.809 165.022 790.085 164.48 794.359 163.925C800.698 163.103 807.007 162.41 813.393 162.06C814.786 161.972 816.173 161.841 817.562 161.709C822.612 161.231 827.67 161.044 832.739 160.873C833.039 160.863 833.339 160.853 833.649 160.842C834.242 160.823 834.836 160.804 835.429 160.786C836.76 160.744 838.082 160.68 839.409 160.57C842.467 160.315 844.772 160.642 847.646 161.701C848.359 161.948 849.072 162.195 849.786 162.442C850.12 162.558 850.455 162.674 850.8 162.793C853.275 163.779 853.275 163.779 855.803 163.508C856.137 163.288 856.471 163.067 856.815 162.841C868.705 155.768 882.169 156.238 895.209 159.444C896.023 159.652 896.837 159.861 897.65 160.072C911.431 163.634 925.438 163.195 939.167 159.675C952.237 156.36 965.883 155.496 979.318 154.931C980.567 154.871 981.811 154.792 983.058 154.698C987.032 154.413 990.876 154.548 994.844 154.944C995.295 154.985 995.746 155.026 996.211 155.068C1001.08 155.63 1004.15 157.51 1007.25 161.245C1008.91 163.398 1009.66 164.638 1009.3 167.346C1009.23 167.929 1009.23 167.929 1009.15 168.523C1009.11 168.819 1009.07 169.115 1009.03 169.42C1007.79 169.763 1006.54 170.095 1005.29 170.421C1004.95 170.515 1004.62 170.608 1004.27 170.705C997.243 172.509 989.639 172.413 982.418 172.746C981.582 172.786 980.745 172.826 979.909 172.866C974.629 173.114 969.35 173.307 964.067 173.462C956.784 173.681 949.513 174.114 942.241 174.544C938.981 174.737 935.722 174.914 932.46 175.065C918.768 175.702 905.211 177.158 891.638 179.028C886.708 179.696 881.77 180.19 876.814 180.624C873.987 180.877 871.192 181.184 868.389 181.624C865.82 182.022 863.266 182.27 860.673 182.436C857.025 182.674 853.396 183.088 849.763 183.489C841.856 184.359 841.856 184.359 838.337 184.569C836.593 184.68 834.852 184.819 833.11 184.959C832.754 184.988 832.397 185.016 832.03 185.046C831.279 185.106 830.527 185.166 829.775 185.227C828.566 185.325 827.357 185.422 826.148 185.518C824.486 185.652 822.825 185.785 821.164 185.918C817.814 186.187 814.463 186.454 811.113 186.721C810.8 186.745 810.488 186.77 810.166 186.796C805.824 187.141 801.481 187.477 797.138 187.808C795.119 187.962 793.099 188.116 791.08 188.27C790.327 188.328 790.327 188.328 789.559 188.387C783.945 188.817 778.334 189.26 772.728 189.79C767.027 190.329 761.32 190.754 755.608 191.151C753.501 191.298 751.394 191.454 749.288 191.615C732.467 192.9 715.667 193.505 698.796 193.589C684.84 193.66 670.907 194.022 656.982 194.965C646.282 195.69 635.575 196.363 624.854 196.69C624.442 196.704 624.029 196.719 623.604 196.734C610.147 197.192 597.918 196.623 585.319 191.717C580.792 189.971 576.383 188.427 571.564 187.747C571.137 187.684 570.71 187.621 570.269 187.556C564.891 186.798 559.746 186.642 554.347 187.171C551.982 187.353 549.904 187.38 547.781 186.195C546.023 184.381 545.24 182.676 544.82 180.206C544.73 179.686 544.639 179.166 544.545 178.629C544.457 178.09 544.368 177.551 544.277 176.995C544.185 176.46 544.092 175.926 543.997 175.375C542.063 164.084 542.063 164.084 545.438 159.322C547.345 157.221 549.692 155.307 552.202 153.956C552.489 153.988 552.776 154.02 553.072 154.054C553.218 153.813 553.364 153.573 553.514 153.326C554.128 152.433 554.775 151.77 555.558 151.024C559.354 147 559.862 142.636 560.229 137.355C552.754 136.695 546.125 138.015 538.904 139.848C537.844 140.117 536.783 140.383 535.721 140.649C532.682 141.412 529.643 142.175 526.609 142.958C526.085 143.093 526.085 143.093 525.55 143.231C524.893 143.4 524.237 143.57 523.581 143.741C522.416 144.041 521.283 144.326 520.085 144.461C519.849 144.499 519.613 144.538 519.37 144.577C519.195 144.846 519.019 145.115 518.838 145.393C518.524 145.448 518.209 145.502 517.884 145.559C515.5 146.381 513.752 148.204 512.376 150.273C511.276 153.993 511.392 157.184 512.421 160.889C512.529 161.308 512.638 161.726 512.75 162.158C513.108 163.532 513.478 164.903 513.851 166.273C519.481 187.193 519.481 187.193 516.91 191.668C514.15 195.341 509.371 197.095 504.993 198.096C501.887 198.468 499.358 198.11 496.819 196.23C495.652 195.29 494.532 194.301 493.41 193.307C488.663 189.137 483.061 186.291 477.041 184.452C476.539 184.298 476.036 184.144 475.519 183.986C469.098 182.179 460.365 180.824 453.862 183.16C452.747 183.884 452.747 183.884 452.539 185.39C452.345 187.495 453.042 189.189 453.735 191.154C455.516 196.478 454.082 202.512 452.956 207.863C452.862 208.339 452.862 208.339 452.766 208.825C452.289 210.937 451.562 212.233 449.979 213.791C448.348 214.658 447.52 214.838 445.684 214.567C442.889 213.515 441.339 211.736 439.937 209.162C439.303 207.366 439.306 205.991 439.525 204.109C439.587 203.555 439.65 203.002 439.714 202.431C439.786 201.832 439.858 201.233 439.93 200.634C440.001 200.017 440.071 199.4 440.142 198.783C440.327 197.165 440.517 195.547 440.709 193.929C440.904 192.276 441.094 190.622 441.284 188.969C441.657 185.728 442.037 182.488 442.419 179.248C436.132 175.008 424.081 175.364 416.778 176.366C416.334 176.411 415.889 176.456 415.431 176.502C404.79 177.663 394.774 181.653 384.854 185.413C364.249 193.223 364.249 193.223 353.767 196.087C352.487 196.439 351.213 196.814 349.938 197.187C338.562 200.453 327.07 202.89 315.404 204.884C311.201 205.604 307.012 206.37 302.826 207.18C297.401 208.225 291.962 209.134 286.503 209.985C285.024 210.218 283.549 210.472 282.074 210.727C279.216 211.207 276.347 211.584 273.473 211.956C271.211 212.25 268.955 212.566 266.701 212.91C263.092 213.454 259.472 213.876 255.846 214.288C255.33 214.348 254.814 214.407 254.282 214.468C253.358 214.574 252.433 214.679 251.508 214.783C250.62 214.885 249.731 214.988 248.843 215.095C244.174 215.651 239.492 216.053 234.808 216.463C233.929 216.541 233.051 216.618 232.173 216.696C230.053 216.882 227.934 217.068 225.814 217.253C224.818 217.34 223.822 217.427 222.826 217.515C215.682 218.141 208.548 218.663 201.382 218.958C196.739 219.154 192.1 219.412 187.46 219.661C184.044 219.843 180.629 220.012 177.21 220.139C176.377 220.172 175.544 220.21 174.712 220.254C159.191 221.064 143.717 221.05 128.183 220.583C125.748 220.511 123.317 220.469 120.881 220.464C107.54 220.353 94.3107 218.653 81.0732 217.13C79.0367 216.896 76.9999 216.665 74.9631 216.434C57.8238 214.49 40.712 212.41 23.6443 209.905C23.2322 209.845 22.8202 209.785 22.3957 209.723C20.0687 209.383 17.7425 209.038 15.4176 208.683C14.7352 208.58 14.0527 208.477 13.37 208.375C8.87309 207.699 4.69927 206.943 0.823868 204.441C0.273728 202.952 0.447359 202.045 0.826378 200.503C3.23267 197.468 6.58544 195.682 10.4084 195.204C12.8806 195.076 15.339 195.443 17.7926 195.721C18.421 195.789 19.0495 195.856 19.6781 195.924C21.0295 196.069 22.3805 196.217 23.7314 196.367C25.8897 196.607 28.0488 196.84 30.2079 197.072C34.817 197.569 39.4253 198.073 44.0336 198.577C50.0492 199.235 56.0651 199.89 62.0819 200.537C62.446 200.576 62.8101 200.615 63.1852 200.656C73.8931 201.807 84.5891 202.801 95.3445 203.397C98.7665 203.591 102.177 203.9 105.59 204.21C111.561 204.726 117.484 204.825 123.474 204.81C124.862 204.82 126.245 204.866 127.632 204.924C133.852 205.167 140.088 204.968 146.308 204.848C147.05 204.834 147.791 204.82 148.533 204.806C150.317 204.773 152.102 204.738 153.886 204.703C155.187 204.677 156.489 204.654 157.791 204.63C162.004 204.547 166.204 204.401 170.411 204.137C172.211 204.041 174.011 204.029 175.814 204.016C179.476 203.986 183.12 203.796 186.775 203.571C187.448 203.531 188.121 203.491 188.794 203.451C189.837 203.39 190.88 203.328 191.923 203.265C194.29 203.123 196.656 202.99 199.024 202.863C221.325 201.655 243.534 199.519 265.604 196.108C267.15 195.87 268.697 195.638 270.244 195.409C275.85 194.576 281.447 193.701 287.034 192.748C288.246 192.542 289.459 192.337 290.672 192.133C297.547 190.967 304.404 189.713 311.261 188.452C313.33 188.072 315.401 187.701 317.473 187.335C328.709 185.344 339.835 182.993 350.86 180.061C354.849 179.008 354.849 179.008 356.748 178.735C357.163 178.662 357.578 178.588 358.006 178.512C358.181 178.243 358.357 177.974 358.538 177.697C359.436 177.492 360.338 177.305 361.242 177.126C362.421 176.762 363.587 176.387 364.753 175.989C365.088 175.875 365.424 175.761 365.769 175.643C371.537 173.655 377.232 171.426 382.806 168.95C384.235 168.333 384.235 168.333 385.549 167.881C389.132 166.573 390.449 164.227 392.111 160.904C391.811 160.744 391.512 160.584 391.203 160.419C390.484 160.036 389.772 159.64 389.072 159.224C385.519 157.51 380.554 157.939 376.675 157.775C376.123 157.751 375.571 157.727 375.003 157.702C371.196 157.554 367.412 157.534 363.606 157.677C361.235 157.767 358.89 157.738 356.518 157.657C353.727 157.579 350.935 157.597 348.144 157.604C347.816 157.604 347.487 157.605 347.15 157.605C340.587 157.617 334.026 157.692 327.464 157.775C327.1 157.78 326.736 157.785 326.361 157.789C325.999 157.794 325.638 157.799 325.265 157.803C321.557 157.85 317.848 157.883 314.14 157.911C313.834 157.914 313.529 157.916 313.214 157.919C310.046 157.943 306.877 157.963 303.709 157.97C299.978 157.982 296.248 158.05 292.518 158.112C287.945 158.189 283.372 158.238 278.798 158.254C276.403 158.264 276.403 158.264 274.01 158.365C263.611 158.808 255.347 155.911 246.76 150.256C246.808 149.828 246.856 149.401 246.905 148.96C247.707 148.441 247.707 148.441 248.81 147.94C249.214 147.753 249.618 147.566 250.035 147.374C250.472 147.178 250.909 146.982 251.359 146.78C251.803 146.577 252.246 146.373 252.704 146.163C254.021 145.559 255.342 144.963 256.663 144.368C257.627 143.934 258.59 143.499 259.553 143.065C260.115 142.811 260.678 142.558 261.24 142.306C263.526 141.274 265.744 140.13 267.968 138.973C269.375 138.265 270.802 137.666 272.265 137.081C275.455 135.759 278.575 134.251 281.635 132.653C283.269 131.803 284.928 131.09 286.636 130.4C288.432 129.648 290.184 128.808 291.945 127.978C294.697 126.683 297.461 125.414 300.224 124.142C302.659 123.021 305.09 121.895 307.518 120.76C308.007 120.532 308.496 120.304 308.999 120.069C309.944 119.629 310.888 119.187 311.832 118.743C312.468 118.447 312.468 118.447 313.117 118.145C313.492 117.969 313.867 117.794 314.253 117.613C315.162 117.25 315.162 117.25 316.031 117.348C316.063 117.062 316.095 116.777 316.128 116.483C316.373 116.383 316.618 116.283 316.871 116.18C319.604 115.058 322.306 113.876 325.001 112.667C325.442 112.471 325.883 112.274 326.337 112.071C328.583 111.069 330.826 110.061 333.065 109.044C341.375 105.28 349.448 101.913 358.424 100.1C359.974 99.7706 361.491 99.3347 363.007 98.8787C365.673 98.229 368.184 98.2803 370.615 99.6073C372.422 101.044 373.653 103.045 374.617 105.116C374.569 105.544 374.521 105.972 374.471 106.413C372.61 107.092 370.749 107.77 368.885 108.441C368.572 108.554 368.258 108.667 367.936 108.784C367.295 109.016 366.653 109.247 366.012 109.477C364.646 109.972 363.351 110.481 362.057 111.144C361.627 111.095 361.197 111.047 360.753 110.997C360.721 111.282 360.689 111.567 360.656 111.861C359.685 112.192 358.712 112.52 357.74 112.846C357.199 113.029 356.657 113.212 356.099 113.4C354.715 113.819 354.715 113.819 353.846 113.721C353.814 114.007 353.782 114.292 353.749 114.586C353.337 114.726 352.925 114.866 352.501 115.011C343.518 118.145 334.95 122.326 326.416 126.495C320.646 129.312 314.842 132.043 309.005 134.719C304.501 136.785 300.025 138.907 295.585 141.106C295.252 141.269 294.918 141.432 294.574 141.601C294.285 141.744 293.996 141.886 293.699 142.034C292.98 142.324 292.98 142.324 292.111 142.226C292.763 143.883 293.192 144.799 294.813 145.593C299.013 146.152 303.34 145.789 307.553 145.548C308.763 145.484 309.972 145.422 311.182 145.361C311.48 145.346 311.778 145.331 312.085 145.316C314.744 145.186 317.402 145.126 320.064 145.094C322.937 145.06 325.802 144.999 328.672 144.859C334.314 144.586 339.96 144.451 345.607 144.294C347.854 144.231 350.102 144.16 352.35 144.086C364.059 143.704 375.778 143.52 387.494 143.502C387.839 143.501 388.184 143.501 388.539 143.5C389.174 143.499 389.809 143.5 390.445 143.501C391.832 143.5 393.166 143.445 394.537 143.236C395.341 143.249 396.145 143.278 396.948 143.316C399.116 143.409 401.276 143.449 403.446 143.457C410.995 143.494 416.931 143.737 422.977 148.621C425.861 150.942 428.911 151.495 432.608 151.252C437.965 150.432 442.989 148.171 446.372 143.909C447.79 141.611 448.394 139.164 448.924 136.55C451.691 123.943 458.264 109.032 469.473 101.651C474.385 98.8574 479.776 98.0962 485.305 99.179C486.844 99.6802 486.844 99.6802 488.25 100.385C488.566 100.533 488.883 100.681 489.209 100.833C495.967 104.154 500.307 110.04 502.722 117.023C503.223 118.525 503.711 120.032 504.196 121.54C504.359 122.027 504.521 122.513 504.689 123.014C504.9 123.67 504.9 123.67 505.116 124.339C505.948 126.143 507.119 127.187 508.805 128.211C518.311 131.396 534.482 125.871 543.601 122.473C548.264 120.774 552.732 120.599 557.651 120.649C558.005 120.653 558.358 120.656 558.722 120.66C559.399 120.67 560.076 120.685 560.752 120.708C564.064 120.777 566.162 119.929 568.596 117.73C569.407 116.384 569.407 116.384 570.028 114.862C570.274 114.302 570.521 113.742 570.768 113.182C570.889 112.899 571.011 112.616 571.136 112.325C571.687 111.056 572.27 109.802 572.852 108.547C573.187 107.819 573.187 107.819 573.529 107.076C576.133 101.435 578.854 95.8692 581.685 90.3378C582.773 88.2131 583.824 86.0737 584.856 83.9221C585.947 81.6598 587.087 79.4387 588.338 77.2593C589.01 76.0849 589.663 74.9041 590.311 73.7172C590.741 72.941 591.171 72.1648 591.601 71.3888C591.8 71.0191 592 70.6494 592.206 70.2684C595.831 63.7914 595.831 63.7914 599.919 64.5974ZM475.583 123.028C470.856 126.207 467.354 129.432 464.614 134.485C464.55 135.055 464.486 135.626 464.419 136.213C465.148 137.092 465.148 137.092 466.19 137.834C466.523 138.1 466.855 138.365 467.198 138.638C470.407 140.289 473.417 139.675 476.759 138.749C477.498 138.555 478.237 138.361 478.975 138.167C479.319 138.075 479.662 137.983 480.016 137.888C481.232 137.573 482.456 137.311 483.687 137.066C483.79 132.095 482.897 128.497 479.349 124.764C478.14 123.982 476.961 123.444 475.583 123.028ZM476.22 158.228C475.139 158.506 474.055 158.767 472.97 159.027C472.276 159.2 471.582 159.374 470.889 159.549C470.568 159.626 470.246 159.703 469.915 159.782C467.906 160.314 466.752 160.996 465.417 162.58C467.354 164.086 469.085 165.083 471.412 165.941C471.705 166.049 471.998 166.157 472.3 166.269C472.918 166.495 473.536 166.718 474.154 166.94C475.085 167.275 476.012 167.62 476.939 167.967C482.537 170.194 482.536 170.194 488.341 170.011C490.05 169.02 490.936 167.81 491.444 165.943C491.626 162.46 490.153 159.901 488.021 157.244C484.096 155.956 480.056 157.237 476.22 158.228Z" fill="black"/>
<path d="M792.54 165.213C790.103 165.589 790.103 165.589 787.617 165.972C787.808 165.561 788 165.149 788.197 164.725C791.059 163.973 791.059 163.973 792.54 165.213Z" fill="black"/>
<path d="M2.95094 197.24C3.2207 197.414 3.49045 197.588 3.76838 197.768C3.30787 198.004 2.84736 198.24 2.37289 198.483C2.56364 198.073 2.7544 197.663 2.95094 197.24Z" fill="black"/>
<path d="M467.867 101.594C468.137 101.768 468.406 101.942 468.684 102.121C468.256 102.073 467.827 102.025 467.386 101.975C467.544 101.849 467.703 101.723 467.867 101.594Z" fill="black"/>
<path d="M515.184 193.551C515.295 193.851 515.406 194.152 515.52 194.461C515.25 194.287 514.98 194.112 514.702 193.933C514.861 193.807 515.02 193.681 515.184 193.551Z" fill="black"/>
<path d="M257.243 143.119C257.648 143.381 257.648 143.381 258.061 143.647C257.608 143.813 257.608 143.813 257.146 143.981C257.178 143.697 257.21 143.412 257.243 143.119Z" fill="black"/>
<path d="M442.582 146.447C442.693 146.748 442.804 147.048 442.919 147.358C442.649 147.183 442.379 147.009 442.1 146.829C442.259 146.703 442.418 146.577 442.582 146.447Z" fill="black"/>
<path d="M584.076 148.348C584.187 148.648 584.298 148.948 584.413 149.258C584.143 149.084 583.873 148.909 583.595 148.73C583.754 148.604 583.913 148.477 584.076 148.348Z" fill="black"/>
<path d="M470.217 127.675C470.328 127.975 470.439 128.276 470.554 128.585C470.283 128.411 470.013 128.237 469.735 128.057C469.894 127.931 470.053 127.805 470.217 127.675Z" fill="black"/>
<path d="M475.533 123.459C475.644 123.759 475.756 124.06 475.87 124.369C475.6 124.195 475.33 124.021 475.052 123.841C475.211 123.715 475.37 123.589 475.533 123.459Z" fill="black"/>
<path d="M596.981 135.357C597.235 135.674 597.489 135.991 597.751 136.317C597.465 136.284 597.179 136.252 596.884 136.219C596.916 135.935 596.948 135.65 596.981 135.357Z" fill="black"/>
<path d="M1.01998 198.773C1.8383 199.302 1.8383 199.302 1.8383 199.302L1.01998 198.773Z" fill="black"/>
<path d="M210.062 218.33C210.88 218.858 210.88 218.858 210.88 218.858L210.062 218.33Z" fill="black"/>
<path d="M440.563 211.42C441.381 211.948 441.381 211.948 441.381 211.948L440.563 211.42Z" fill="black"/>
<path d="M509.098 196.805C509.916 197.333 509.916 197.333 509.916 197.333L509.098 196.805Z" fill="black"/>
<path d="M512.334 195.42C513.153 195.948 513.153 195.948 513.153 195.948L512.334 195.42Z" fill="black"/>
<path d="M490.75 191.68C491.569 192.208 491.569 192.208 491.569 192.208L490.75 191.68Z" fill="black"/>
<path d="M383.413 167.803C384.231 168.331 384.231 168.331 384.231 168.331L383.413 167.803Z" fill="black"/>
<path d="M261.88 141.016C262.699 141.544 262.699 141.544 262.699 141.544L261.88 141.016Z" fill="black"/>
<path d="M270.237 137.141C271.055 137.669 271.055 137.669 271.055 137.669L270.237 137.141Z" fill="black"/>
<path d="M323.653 127.829C324.471 128.357 324.471 128.357 324.471 128.357L323.653 127.829Z" fill="black"/>
<path d="M300.428 123.031C301.247 123.56 301.247 123.56 301.247 123.56L300.428 123.031Z" fill="black"/>
<path d="M516.084 146.395C516.903 146.923 516.903 146.923 516.903 146.923L516.084 146.395Z" fill="black"/>
<path d="M329.692 125.008C330.51 125.536 330.51 125.536 330.51 125.536L329.692 125.008Z" fill="black"/>
<path d="M334.813 122.521C335.631 123.049 335.631 123.049 335.631 123.049L334.813 122.521Z" fill="black"/>
<path d="M308.786 119.157C309.604 119.686 309.604 119.686 309.604 119.686L308.786 119.157Z" fill="black"/>
<path d="M331.973 108.636C332.791 109.164 332.791 109.164 332.791 109.164L331.973 108.636Z" fill="black"/>
<path d="M362.057 111.143C362.875 111.671 362.875 111.671 362.875 111.671L362.057 111.143Z" fill="black"/>
<path d="M335.692 106.866C336.51 107.395 336.51 107.395 336.51 107.395L335.692 106.866Z" fill="black"/>
<path d="M506.102 125.582C506.92 126.11 506.92 126.11 506.92 126.11L506.102 125.582Z" fill="black"/>
<path d="M339.846 105.146C340.664 105.674 340.664 105.674 340.664 105.674L339.846 105.146Z" fill="black"/>
<path d="M371.717 107.415C372.536 107.943 372.536 107.943 372.536 107.943L371.717 107.415Z" fill="black"/>
<path d="M857.207 161.543C858.026 162.071 858.026 162.071 858.026 162.071L857.207 161.543Z" fill="black"/>
<path d="M465.936 103.127C466.754 103.655 466.754 103.655 466.754 103.655L465.936 103.127Z" fill="black"/>
</g>
<defs>
<clipPath id="clip0_2228_365">
<rect width="998.426" height="209.156" fill="white" transform="translate(23.3608) rotate(6.41278)"/>
</clipPath>
</defs>
</svg>
