<svg width="81" height="81" viewBox="0 0 81 81" fill="none" xmlns="http://www.w3.org/2000/svg">
<circle cx="40.5" cy="40.5" r="40.5" fill="white"/>
<g clip-path="url(#clip0_2289_402)">
<path d="M49.002 34.5225C49.1286 34.5623 49.2396 34.621 49.3538 34.6875C49.3773 34.7003 49.4007 34.7131 49.4248 34.7263C49.6599 34.8596 49.8369 35.0327 49.9419 35.2838C50.0291 35.6433 49.8859 35.977 49.7325 36.2956C49.6492 36.4692 49.5785 36.6473 49.5082 36.8265C49.4953 36.8594 49.4824 36.8922 49.4691 36.9261C49.3858 37.1395 49.3067 37.354 49.2304 37.5699C49.1121 37.9008 48.9817 38.2273 48.8531 38.5544C48.8093 38.6657 48.7664 38.7774 48.7239 38.8892C48.7047 38.9386 48.684 38.9874 48.6631 39.0362C48.6096 39.1686 48.6096 39.1686 48.6265 39.3063C48.6607 39.3718 48.699 39.4289 48.743 39.4882C48.7569 39.5086 48.7708 39.529 48.7851 39.55C48.8287 39.6134 48.873 39.6761 48.9212 39.7361C48.9192 39.8335 48.9065 39.9055 48.8653 39.9941C48.7201 40.123 48.5203 40.1446 48.3309 40.1561C48.1449 40.1736 47.9958 40.2539 47.8733 40.3948C47.8182 40.4714 47.7665 40.5495 47.7155 40.6289C47.5429 40.8856 47.3627 41.0973 47.1417 41.3131C47.0793 41.3766 47.0184 41.4413 46.9582 41.5069C46.9313 41.5355 46.9044 41.564 46.8767 41.5935C46.8145 41.671 46.8145 41.671 46.8321 41.7579C46.973 42.0594 47.2437 42.2425 47.5501 42.3547C47.7698 42.4176 47.9864 42.4274 48.2134 42.4171C48.4694 42.4055 48.7249 42.407 48.981 42.4083C49.0279 42.4084 49.0748 42.4086 49.1217 42.4087C49.2153 42.4091 49.309 42.4094 49.4026 42.4098C49.4501 42.41 49.4976 42.4102 49.545 42.4104C49.5699 42.4105 49.5947 42.4106 49.6203 42.4107C49.6948 42.411 49.7694 42.4112 49.844 42.4114C49.8665 42.4115 49.8889 42.4116 49.912 42.4117C50.0141 42.412 50.1157 42.4109 50.2178 42.4078C50.3132 42.4052 50.4022 42.4117 50.4968 42.4235C50.5259 42.4271 50.555 42.4306 50.585 42.4343C50.6175 42.4385 50.6175 42.4385 50.6506 42.4427C50.6629 42.4239 50.6752 42.405 50.6879 42.3856C50.7055 42.3883 50.7232 42.391 50.7414 42.3938C50.8854 42.4132 51.0214 42.4209 51.1666 42.411C51.3528 42.3999 51.5375 42.4002 51.724 42.4025C52.2303 42.4061 52.7357 42.3874 53.2415 42.3687C53.3899 42.3632 53.5383 42.3583 53.6867 42.3541C54.5241 42.3288 55.3554 42.2329 56.1863 42.1317C57.0368 42.0284 57.8879 41.9376 58.743 41.88C59.0367 41.8598 59.3297 41.8342 59.6228 41.8065C59.7964 41.7901 59.9699 41.7743 60.1437 41.7604C60.5689 41.7263 60.9916 41.6826 61.4147 41.629C61.5157 41.6162 61.6167 41.6036 61.7177 41.5911C62.0171 41.5538 62.3165 41.5158 62.6158 41.477C63.0596 41.4195 63.5013 41.3709 63.9484 41.3464C64.0459 41.3403 64.143 41.3311 64.2403 41.3218C64.5939 41.2883 64.948 41.2753 65.3029 41.2633C65.324 41.2626 65.345 41.2619 65.3666 41.2611C65.4082 41.2598 65.4497 41.2585 65.4913 41.2572C65.5845 41.2543 65.677 41.2498 65.7699 41.2421C65.9841 41.2243 66.1455 41.2472 66.3467 41.3212C66.3966 41.3386 66.4465 41.3559 66.4965 41.3732C66.5199 41.3813 66.5433 41.3894 66.5675 41.3977C66.7408 41.4668 66.7408 41.4668 66.9178 41.4478C66.9412 41.4324 66.9645 41.4169 66.9886 41.4011C67.8211 40.9059 68.7638 40.9388 69.6768 41.1632C69.7338 41.1778 69.7908 41.1924 69.8477 41.2072C70.8126 41.4566 71.7933 41.4259 72.7545 41.1795C73.6697 40.9473 74.625 40.8868 75.5657 40.8472C75.6532 40.8431 75.7403 40.8375 75.8276 40.8309C76.1058 40.811 76.375 40.8205 76.6527 40.8482C76.6843 40.851 76.7159 40.8539 76.7485 40.8569C77.0892 40.8962 77.304 41.0278 77.5213 41.2894C77.6377 41.4401 77.6899 41.5269 77.6651 41.7165C77.66 41.7573 77.66 41.7573 77.6547 41.7989C77.6519 41.8197 77.6491 41.8404 77.6462 41.8617C77.5589 41.8857 77.4716 41.909 77.3841 41.9318C77.3606 41.9384 77.3371 41.9449 77.3129 41.9517C76.8207 42.078 76.2883 42.0712 75.7828 42.0946C75.7242 42.0974 75.6656 42.1002 75.6071 42.103C75.2374 42.1203 74.8678 42.1339 74.4979 42.1448C73.988 42.16 73.4789 42.1903 72.9697 42.2205C72.7415 42.234 72.5133 42.2464 72.2849 42.257C71.3263 42.3016 70.3771 42.4035 69.4268 42.5344C69.0816 42.5812 68.7358 42.6158 68.3888 42.6462C68.191 42.6639 67.9953 42.6854 67.799 42.7162C67.6191 42.744 67.4403 42.7614 67.2588 42.773C67.0033 42.7897 66.7493 42.8187 66.4949 42.8468C65.9413 42.9077 65.9413 42.9077 65.6949 42.9224C65.5728 42.9302 65.4509 42.9399 65.3289 42.9497C65.304 42.9517 65.279 42.9537 65.2533 42.9558C65.2007 42.96 65.1481 42.9642 65.0954 42.9685C65.0108 42.9753 64.9261 42.9821 64.8414 42.9889C64.7251 42.9982 64.6088 43.0075 64.4926 43.0168C64.258 43.0357 64.0234 43.0544 63.7888 43.073C63.7669 43.0748 63.745 43.0765 63.7225 43.0783C63.4185 43.1025 63.1144 43.126 62.8103 43.1492C62.6689 43.1599 62.5276 43.1707 62.3862 43.1815C62.3335 43.1856 62.3335 43.1856 62.2797 43.1897C61.8866 43.2198 61.4937 43.2508 61.1013 43.288C60.7021 43.3257 60.3026 43.3554 59.9026 43.3832C59.7551 43.3935 59.6076 43.4045 59.4601 43.4157C58.2824 43.5057 57.1062 43.5481 55.9249 43.554C54.9478 43.5589 53.9722 43.5843 52.9973 43.6503C52.2481 43.701 51.4985 43.7481 50.7478 43.771C50.719 43.772 50.6901 43.7731 50.6603 43.7741C49.7181 43.8062 48.8619 43.7663 47.9798 43.4228C47.6628 43.3006 47.3541 43.1925 47.0167 43.1449C46.9868 43.1405 46.9569 43.1361 46.9261 43.1316C46.5495 43.0785 46.1893 43.0675 45.8113 43.1045C45.6457 43.1173 45.5002 43.1192 45.3516 43.0362C45.2285 42.9092 45.1736 42.7898 45.1442 42.6169C45.1379 42.5805 45.1315 42.5441 45.125 42.5065C45.1188 42.4688 45.1126 42.431 45.1062 42.3921C45.0997 42.3547 45.0933 42.3172 45.0866 42.2786C44.9512 41.4881 44.9512 41.4881 45.1875 41.1547C45.321 41.0076 45.4853 40.8736 45.6611 40.779C45.6812 40.7813 45.7013 40.7835 45.722 40.7858C45.7322 40.769 45.7424 40.7522 45.753 40.7349C45.7959 40.6724 45.8412 40.6259 45.896 40.5737C46.1618 40.292 46.1974 39.9865 46.2231 39.6167C45.6997 39.5705 45.2356 39.6629 44.73 39.7912C44.6558 39.8101 44.5815 39.8287 44.5072 39.8473C44.2944 39.9007 44.0816 39.9542 43.8692 40.009C43.8325 40.0184 43.8325 40.0184 43.795 40.0281C43.749 40.0399 43.7031 40.0518 43.6571 40.0638C43.5756 40.0848 43.4963 40.1048 43.4124 40.1142C43.3959 40.1169 43.3794 40.1196 43.3623 40.1224C43.3501 40.1412 43.3378 40.16 43.3251 40.1794C43.3031 40.1833 43.281 40.1871 43.2583 40.1911C43.0914 40.2486 42.969 40.3763 42.8727 40.5211C42.7956 40.7816 42.8038 41.005 42.8758 41.2644C42.8834 41.2937 42.891 41.3231 42.8988 41.3533C42.9239 41.4495 42.9498 41.5454 42.9759 41.6414C43.3701 43.1061 43.3701 43.1061 43.1901 43.4194C42.9969 43.6766 42.6623 43.7994 42.3558 43.8695C42.1383 43.8955 41.9612 43.8705 41.7834 43.7388C41.7017 43.673 41.6233 43.6038 41.5448 43.5342C41.2124 43.2422 40.8202 43.043 40.3987 42.9142C40.3635 42.9034 40.3283 42.8927 40.2921 42.8815C39.8425 42.755 39.2311 42.6601 38.7758 42.8237C38.6977 42.8744 38.6977 42.8744 38.6831 42.9799C38.6695 43.1272 38.7184 43.2459 38.7669 43.3834C38.8916 43.7562 38.7912 44.1786 38.7123 44.5533C38.7057 44.5867 38.7057 44.5867 38.699 44.6207C38.6656 44.7686 38.6148 44.8593 38.5039 44.9684C38.3897 45.0291 38.3318 45.0417 38.2032 45.0227C38.0075 44.9491 37.899 44.8245 37.8008 44.6443C37.7564 44.5185 37.7566 44.4222 37.772 44.2905C37.7763 44.2517 37.7807 44.213 37.7852 44.173C37.7902 44.1311 37.7953 44.0891 37.8003 44.0472C37.8053 44.004 37.8102 43.9608 37.8151 43.9176C37.8281 43.8043 37.8414 43.691 37.8549 43.5777C37.8685 43.462 37.8818 43.3462 37.8951 43.2304C37.9213 43.0035 37.9478 42.7767 37.9746 42.5499C37.5344 42.253 36.6907 42.2779 36.1794 42.3481C36.1482 42.3512 36.1171 42.3544 36.085 42.3576C35.34 42.4388 34.6387 42.7183 33.9442 42.9815C32.5015 43.5283 32.5015 43.5283 31.7676 43.7288C31.678 43.7535 31.5888 43.7798 31.4995 43.8058C30.703 44.0345 29.8984 44.2051 29.0816 44.3448C28.7874 44.3951 28.4941 44.4488 28.201 44.5055C27.8211 44.5787 27.4403 44.6423 27.0581 44.7019C26.9545 44.7182 26.8513 44.736 26.748 44.7539C26.5479 44.7875 26.347 44.8139 26.1458 44.8399C25.9874 44.8604 25.8295 44.8826 25.6716 44.9067C25.419 44.9448 25.1655 44.9744 24.9116 45.0032C24.8755 45.0073 24.8394 45.0115 24.8021 45.0158C24.7374 45.0232 24.6727 45.0306 24.6079 45.0379C24.5457 45.0449 24.4835 45.0522 24.4213 45.0597C24.0944 45.0986 23.7666 45.1267 23.4386 45.1555C23.3771 45.1609 23.3157 45.1663 23.2542 45.1717C23.1058 45.1848 22.9573 45.1978 22.8089 45.2108C22.7392 45.2169 22.6695 45.223 22.5998 45.2291C22.0995 45.273 21.6001 45.3095 21.0983 45.3302C20.7733 45.3439 20.4484 45.3619 20.1236 45.3793C19.8844 45.3921 19.6453 45.4039 19.4059 45.4128C19.3476 45.4151 19.2893 45.4178 19.231 45.4209C18.1443 45.4776 17.0609 45.4766 15.9733 45.4439C15.8028 45.4388 15.6326 45.4359 15.462 45.4356C14.528 45.4278 13.6017 45.3088 12.6749 45.2022C12.5323 45.1858 12.3897 45.1696 12.2471 45.1534C11.0471 45.0173 9.84898 44.8717 8.65398 44.6963C8.62513 44.6921 8.59628 44.6879 8.56656 44.6835C8.40363 44.6597 8.24077 44.6356 8.07799 44.6108C8.03021 44.6035 7.98242 44.5963 7.93462 44.5891C7.61977 44.5418 7.32754 44.4889 7.0562 44.3137C7.01769 44.2095 7.02984 44.146 7.05638 44.038C7.22486 43.8255 7.4596 43.7005 7.72727 43.667C7.90036 43.658 8.07248 43.6837 8.24427 43.7032C8.28827 43.7079 8.33228 43.7127 8.37629 43.7174C8.4709 43.7276 8.5655 43.7379 8.66008 43.7484C8.8112 43.7652 8.96236 43.7815 9.11354 43.7978C9.43624 43.8326 9.75889 43.8678 10.0815 43.9032C10.5027 43.9492 10.9239 43.9951 11.3452 44.0404C11.3707 44.0431 11.3962 44.0459 11.4224 44.0487C12.1722 44.1293 12.921 44.1989 13.6741 44.2406C13.9137 44.2542 14.1524 44.2759 14.3914 44.2976C14.8095 44.3337 15.2242 44.3406 15.6436 44.3396C15.7408 44.3402 15.8376 44.3435 15.9347 44.3475C16.3702 44.3646 16.8068 44.3506 17.2423 44.3423C17.2943 44.3413 17.3462 44.3403 17.3981 44.3393C17.523 44.3369 17.6479 44.3345 17.7729 44.3321C17.864 44.3303 17.9551 44.3286 18.0463 44.3269C18.3413 44.3212 18.6354 44.3109 18.9299 44.2925C19.0559 44.2857 19.1819 44.2849 19.3082 44.284C19.5646 44.2819 19.8197 44.2686 20.0756 44.2528C20.1227 44.25 20.1698 44.2472 20.217 44.2444C20.29 44.2401 20.363 44.2358 20.4361 44.2314C20.6018 44.2215 20.7675 44.2122 20.9332 44.2032C22.4946 44.1187 24.0496 43.9691 25.5948 43.7303C25.7031 43.7136 25.8114 43.6974 25.9197 43.6813C26.3122 43.623 26.7041 43.5617 27.0953 43.4951C27.1802 43.4806 27.2651 43.4663 27.35 43.452C27.8313 43.3703 28.3114 43.2825 28.7915 43.1943C28.9364 43.1677 29.0814 43.1417 29.2265 43.116C30.0132 42.9767 30.7921 42.812 31.5641 42.6068C31.8434 42.533 31.8434 42.533 31.9763 42.5139C32.0054 42.5088 32.0345 42.5036 32.0644 42.4983C32.0767 42.4795 32.089 42.4606 32.1016 42.4412C32.1645 42.4269 32.2277 42.4138 32.291 42.4012C32.3735 42.3758 32.4551 42.3495 32.5368 42.3216C32.5603 42.3137 32.5837 42.3057 32.6079 42.2974C33.0118 42.1582 33.4105 42.0022 33.8007 41.8288C33.9008 41.7856 33.9008 41.7856 33.9928 41.754C34.2437 41.6624 34.3359 41.4982 34.4523 41.2655C34.4313 41.2543 34.4103 41.2431 34.3887 41.2315C34.3384 41.2047 34.2885 41.177 34.2395 41.1479C33.9907 41.0278 33.6431 41.0579 33.3715 41.0464C33.3329 41.0447 33.2942 41.043 33.2544 41.0413C32.9879 41.0309 32.723 41.0295 32.4565 41.0396C32.2905 41.0458 32.1263 41.0438 31.9602 41.0381C31.7648 41.0327 31.5693 41.0339 31.3739 41.0344C31.3509 41.0344 31.3279 41.0345 31.3043 41.0345C30.8448 41.0353 30.3854 41.0406 29.926 41.0464C29.9005 41.0467 29.875 41.0471 29.8488 41.0474C29.8234 41.0477 29.7981 41.048 29.772 41.0484C29.5124 41.0516 29.2528 41.0539 28.9931 41.0559C28.9717 41.0561 28.9503 41.0563 28.9283 41.0565C28.7065 41.0582 28.4846 41.0595 28.2628 41.06C28.0016 41.0609 27.7404 41.0656 27.4792 41.07C27.159 41.0754 26.8389 41.0788 26.5186 41.0799C26.3509 41.0806 26.3509 41.0806 26.1834 41.0877C25.4553 41.1187 24.8767 40.9159 24.2755 40.52C24.2788 40.49 24.2822 40.4601 24.2857 40.4292C24.3418 40.3929 24.3418 40.3929 24.419 40.3578C24.4473 40.3447 24.4756 40.3316 24.5048 40.3181C24.5354 40.3044 24.5659 40.2907 24.5975 40.2766C24.6285 40.2623 24.6596 40.2481 24.6916 40.2334C24.7839 40.1911 24.8763 40.1493 24.9689 40.1077C25.0363 40.0773 25.1038 40.0469 25.1712 40.0165C25.2106 39.9987 25.2499 39.981 25.2893 39.9633C25.4494 39.8911 25.6047 39.811 25.7603 39.7299C25.8589 39.6804 25.9588 39.6384 26.0612 39.5975C26.2846 39.5049 26.5031 39.3994 26.7172 39.2875C26.8317 39.2279 26.9478 39.1781 27.0674 39.1297C27.1932 39.0771 27.3158 39.0182 27.4391 38.9601C27.6318 38.8694 27.8253 38.7806 28.0188 38.6916C28.1892 38.6131 28.3595 38.5343 28.5295 38.4548C28.5637 38.4388 28.5979 38.4228 28.6332 38.4064C28.6993 38.3756 28.7654 38.3446 28.8315 38.3135C28.876 38.2928 28.876 38.2928 28.9215 38.2717C28.9477 38.2594 28.974 38.2471 29.001 38.2344C29.0647 38.209 29.0647 38.209 29.1255 38.2159C29.1278 38.1959 29.13 38.1759 29.1323 38.1553C29.1495 38.1484 29.1666 38.1414 29.1843 38.1341C29.3757 38.0556 29.5648 37.9728 29.7536 37.8882C29.7844 37.8744 29.8153 37.8606 29.8471 37.8465C30.0043 37.7763 30.1614 37.7057 30.3182 37.6345C30.9 37.3709 31.4652 37.1352 32.0937 37.0083C32.2022 36.9852 32.3084 36.9547 32.4146 36.9228C32.6012 36.8773 32.777 36.8809 32.9472 36.9738C33.0738 37.0744 33.1599 37.2145 33.2274 37.3595C33.224 37.3894 33.2207 37.4194 33.2172 37.4503C33.0869 37.4978 32.9566 37.5453 32.8261 37.5923C32.8041 37.6002 32.7822 37.6081 32.7596 37.6163C32.7148 37.6325 32.6698 37.6487 32.6249 37.6648C32.5293 37.6994 32.4386 37.7351 32.348 37.7815C32.3179 37.7781 32.2878 37.7747 32.2567 37.7712C32.2545 37.7912 32.2523 37.8112 32.2499 37.8317C32.1819 37.8549 32.1139 37.8778 32.0458 37.9007C32.0079 37.9135 31.97 37.9263 31.9309 37.9395C31.834 37.9688 31.834 37.9688 31.7731 37.962C31.7709 37.9819 31.7686 38.0019 31.7663 38.0225C31.7375 38.0323 31.7087 38.0421 31.679 38.0523C31.05 38.2717 30.4501 38.5644 29.8526 38.8563C29.4486 39.0536 29.0423 39.2448 28.6336 39.4321C28.3182 39.5768 28.0049 39.7254 27.694 39.8793C27.6706 39.8907 27.6473 39.9022 27.6232 39.9139C27.603 39.9239 27.5827 39.934 27.5619 39.9443C27.5116 39.9646 27.5116 39.9646 27.4507 39.9577C27.4964 40.0738 27.5265 40.1379 27.6399 40.1935C27.934 40.2326 28.2369 40.2072 28.5319 40.1903C28.6166 40.1858 28.7013 40.1815 28.786 40.1772C28.8069 40.1762 28.8277 40.1751 28.8492 40.1741C29.0354 40.165 29.2215 40.1608 29.4079 40.1586C29.609 40.1561 29.8096 40.1519 30.0106 40.1421C30.4056 40.123 30.8009 40.1135 31.1962 40.1025C31.3536 40.0981 31.511 40.0932 31.6684 40.088C32.4882 40.0612 33.3087 40.0483 34.129 40.0471C34.1532 40.047 34.1773 40.047 34.2022 40.0469C34.2466 40.0469 34.2911 40.0469 34.3356 40.047C34.4327 40.0469 34.5261 40.0431 34.6221 40.0285C34.6784 40.0294 34.7347 40.0314 34.791 40.0341C34.9427 40.0405 35.094 40.0434 35.2459 40.0439C35.7744 40.0465 36.19 40.0635 36.6134 40.4055C36.8153 40.568 37.0289 40.6067 37.2876 40.5897C37.6628 40.5323 38.0145 40.374 38.2514 40.0756C38.3507 39.9147 38.3929 39.7433 38.43 39.5603C38.6237 38.6776 39.084 37.6336 39.8688 37.1168C40.2127 36.9213 40.5902 36.868 40.9773 36.9438C41.085 36.9789 41.085 36.9789 41.1835 37.0282C41.2056 37.0386 41.2278 37.0489 41.2506 37.0596C41.7237 37.2921 42.0276 37.7042 42.1967 38.1931C42.2318 38.2983 42.266 38.4038 42.2999 38.5094C42.3113 38.5435 42.3227 38.5775 42.3344 38.6126C42.3492 38.6585 42.3492 38.6585 42.3643 38.7054C42.4226 38.8316 42.5046 38.9047 42.6226 38.9765C43.2882 39.1994 44.4204 38.8127 45.0589 38.5748C45.3853 38.4558 45.6982 38.4435 46.0426 38.447C46.0674 38.4473 46.0921 38.4475 46.1176 38.4478C46.165 38.4485 46.2124 38.4496 46.2597 38.4511C46.4916 38.456 46.6385 38.3966 46.8089 38.2426C46.8657 38.1484 46.8657 38.1484 46.9091 38.0418C46.9264 38.0026 46.9437 37.9634 46.961 37.9242C46.9695 37.9044 46.978 37.8846 46.9868 37.8642C47.0253 37.7754 47.0662 37.6876 47.1069 37.5997C47.1303 37.5487 47.1303 37.5487 47.1543 37.4967C47.3366 37.1018 47.5271 36.712 47.7254 36.3248C47.8015 36.176 47.8751 36.0262 47.9474 35.8756C48.0238 35.7172 48.1036 35.5617 48.1912 35.4091C48.2382 35.3268 48.2839 35.2442 48.3293 35.1611C48.3594 35.1067 48.3895 35.0524 48.4196 34.998C48.4336 34.9722 48.4476 34.9463 48.462 34.9196C48.7157 34.4661 48.7157 34.4661 49.002 34.5225ZM40.2966 38.6136C39.9656 38.8361 39.7204 39.0619 39.5286 39.4157C39.5241 39.4557 39.5196 39.4956 39.515 39.5368C39.566 39.5983 39.566 39.5983 39.6389 39.6503C39.6622 39.6688 39.6855 39.6874 39.7095 39.7065C39.9342 39.8221 40.1449 39.7791 40.3789 39.7143C40.4307 39.7007 40.4824 39.6871 40.5341 39.6736C40.5582 39.6671 40.5822 39.6607 40.607 39.654C40.6921 39.6319 40.7778 39.6136 40.864 39.5965C40.8712 39.2484 40.8087 38.9965 40.5603 38.7351C40.4756 38.6804 40.3931 38.6427 40.2966 38.6136ZM40.3412 41.0781C40.2655 41.0976 40.1896 41.1158 40.1136 41.134C40.065 41.1462 40.0165 41.1583 39.9679 41.1706C39.9454 41.176 39.9229 41.1814 39.8997 41.1869C39.7591 41.2242 39.6783 41.2719 39.5848 41.3828C39.7204 41.4883 39.8416 41.558 40.0045 41.6181C40.0251 41.6257 40.0456 41.6333 40.0668 41.6411C40.11 41.6569 40.1532 41.6726 40.1966 41.6881C40.2617 41.7115 40.3266 41.7357 40.3915 41.76C40.7834 41.9159 40.7834 41.9159 41.1898 41.9031C41.3095 41.8337 41.3715 41.749 41.4071 41.6183C41.4198 41.3744 41.3167 41.1953 41.1674 41.0092C40.8927 40.919 40.6097 41.0087 40.3412 41.0781Z" fill="black"/>
<path d="M62.4884 41.5679C62.3178 41.5942 62.3178 41.5942 62.1437 41.621C62.1571 41.5922 62.1705 41.5634 62.1843 41.5337C62.3847 41.481 62.3847 41.481 62.4884 41.5679Z" fill="black"/>
<path d="M7.20609 43.81C7.22498 43.8222 7.24387 43.8344 7.26333 43.847C7.23108 43.8635 7.19884 43.88 7.16562 43.8971C7.17898 43.8683 7.19233 43.8396 7.20609 43.81Z" fill="black"/>
<path d="M39.7569 37.1128C39.7758 37.125 39.7946 37.1372 39.8141 37.1497C39.7841 37.1464 39.7541 37.143 39.7232 37.1395C39.7343 37.1307 39.7454 37.1219 39.7569 37.1128Z" fill="black"/>
<path d="M43.0694 43.5513C43.0771 43.5723 43.0849 43.5933 43.0929 43.6149C43.074 43.6027 43.0551 43.5906 43.0357 43.578C43.0468 43.5692 43.0579 43.5603 43.0694 43.5513Z" fill="black"/>
<path d="M25.0098 40.0205C25.0381 40.0388 25.0381 40.0388 25.067 40.0575C25.0353 40.069 25.0353 40.069 25.003 40.0808C25.0052 40.0609 25.0075 40.041 25.0098 40.0205Z" fill="black"/>
<path d="M37.9873 40.2534C37.9951 40.2744 38.0029 40.2954 38.0109 40.3171C37.992 40.3049 37.9731 40.2927 37.9536 40.2801C37.9648 40.2713 37.9759 40.2625 37.9873 40.2534Z" fill="black"/>
<path d="M47.8936 40.3862C47.9014 40.4072 47.9091 40.4282 47.9171 40.4499C47.8982 40.4377 47.8794 40.4255 47.8599 40.413C47.871 40.4041 47.8821 40.3953 47.8936 40.3862Z" fill="black"/>
<path d="M39.9209 38.939C39.9287 38.96 39.9365 38.981 39.9445 39.0026C39.9256 38.9904 39.9067 38.9782 39.8872 38.9657C39.8984 38.9569 39.9095 38.948 39.9209 38.939Z" fill="black"/>
<path d="M40.294 38.644C40.3017 38.665 40.3095 38.6861 40.3175 38.7077C40.2986 38.6955 40.2797 38.6833 40.2603 38.6708C40.2714 38.6619 40.2825 38.6531 40.294 38.644Z" fill="black"/>
<path d="M48.7969 39.4775C48.8146 39.4997 48.8324 39.5218 48.8507 39.5446C48.8307 39.5424 48.8107 39.5401 48.7901 39.5378C48.7923 39.5179 48.7946 39.498 48.7969 39.4775Z" fill="black"/>
<path d="M7.07031 43.917C7.12755 43.9539 7.12755 43.9539 7.12755 43.9539L7.07031 43.917Z" fill="black"/>
<path d="M21.707 45.2861C21.7643 45.3231 21.7643 45.3231 21.7643 45.3231L21.707 45.2861Z" fill="black"/>
<path d="M37.8457 44.8027C37.9029 44.8397 37.9029 44.8397 37.9029 44.8397L37.8457 44.8027Z" fill="black"/>
<path d="M42.6445 43.7793C42.7018 43.8162 42.7018 43.8162 42.7018 43.8162L42.6445 43.7793Z" fill="black"/>
<path d="M42.8711 43.6826C42.9283 43.7196 42.9283 43.7196 42.9283 43.7196L42.8711 43.6826Z" fill="black"/>
<path d="M41.3594 43.4209C41.4166 43.4578 41.4166 43.4578 41.4166 43.4578L41.3594 43.4209Z" fill="black"/>
<path d="M33.8438 41.749C33.901 41.786 33.901 41.786 33.901 41.786L33.8438 41.749Z" fill="black"/>
<path d="M25.334 39.873C25.3912 39.91 25.3912 39.91 25.3912 39.91L25.334 39.873Z" fill="black"/>
<path d="M25.9199 39.6016C25.9772 39.6385 25.9772 39.6385 25.9772 39.6385L25.9199 39.6016Z" fill="black"/>
<path d="M29.6602 38.9502C29.7174 38.9871 29.7174 38.9871 29.7174 38.9871L29.6602 38.9502Z" fill="black"/>
<path d="M28.0332 38.6143C28.0904 38.6512 28.0904 38.6512 28.0904 38.6512L28.0332 38.6143Z" fill="black"/>
<path d="M43.1328 40.25C43.19 40.287 43.19 40.287 43.19 40.287L43.1328 40.25Z" fill="black"/>
<path d="M30.082 38.752C30.1393 38.7889 30.1393 38.7889 30.1393 38.7889L30.082 38.752Z" fill="black"/>
<path d="M30.4414 38.5781C30.4986 38.6151 30.4986 38.6151 30.4986 38.6151L30.4414 38.5781Z" fill="black"/>
<path d="M28.6191 38.3428C28.6764 38.3797 28.6764 38.3797 28.6764 38.3797L28.6191 38.3428Z" fill="black"/>
<path d="M30.2422 37.6064C30.2994 37.6434 30.2994 37.6434 30.2994 37.6434L30.2422 37.6064Z" fill="black"/>
<path d="M32.3477 37.7812C32.4049 37.8182 32.4049 37.8182 32.4049 37.8182L32.3477 37.7812Z" fill="black"/>
<path d="M30.502 37.4824C30.5592 37.5194 30.5592 37.5194 30.5592 37.5194L30.502 37.4824Z" fill="black"/>
<path d="M42.4336 38.793C42.4908 38.8299 42.4908 38.8299 42.4908 38.8299L42.4336 38.793Z" fill="black"/>
<path d="M30.793 37.3613C30.8502 37.3983 30.8502 37.3983 30.8502 37.3983L30.793 37.3613Z" fill="black"/>
<path d="M33.0254 37.5205C33.0826 37.5575 33.0826 37.5575 33.0826 37.5575L33.0254 37.5205Z" fill="black"/>
<path d="M67.0176 41.3105C67.0748 41.3475 67.0748 41.3475 67.0748 41.3475L67.0176 41.3105Z" fill="black"/>
<path d="M39.6211 37.2207C39.6783 37.2577 39.6783 37.2577 39.6783 37.2577L39.6211 37.2207Z" fill="black"/>
</g>
<defs>
<clipPath id="clip0_2289_402">
<rect width="69.905" height="14.6441" fill="white" transform="translate(8.63477 30) rotate(6.41278)"/>
</clipPath>
</defs>
</svg>
